<svg xmlns="http://www.w3.org/2000/svg" viewBox="0 0 512 512">
	<style>
		path { fill: #0561fc; }
		@media (prefers-color-scheme: dark) {
    		path { fill: #FC722E; }
		}
	</style>

	<path d="M497.6 288.6a245 245 0 0 0 2.4-32.7c0-11-.9-21.1-2.3-31.5L448 207.3a195.9 195.9 0 0 0-21.3-51.9l23.1-47.4a244 244 0 0 0-45.1-45.3l-47.4 23.1c-16-9.6-33.6-17-52.1-21.6l-17.2-50C277.5 13 267 12 256 12a247 247 0 0 0-31.9 2.3L207 64.2c-18.7 4.7-36.1 12-52.2 21.6l-47.3-23A244 244 0 0 0 62.3 108l23.1 47.4a199 199 0 0 0-21.3 51.9l-49.8 17A247.8 247.8 0 0 0 12 256c0 10.8 1 22 2.4 32.7l50 17.2c4.7 18.2 12 35.4 21.3 51.1l-23.1 47.4a245.8 245.8 0 0 0 45.6 45.5l47.5-23.2a196 196 0 0 0 50.8 21l17.2 49.9C234.3 499 245 500 256 500c11 0 21.7-1 32.3-2.4l17.1-50a197 197 0 0 0 50.8-20.9l47.5 23.2a243.6 243.6 0 0 0 45.7-45.6L426.2 357c9.4-15.8 16.6-33 21.4-51.1l49.9-17.2zm-241.5 83.5a116.1 116.1 0 1 1 0-232.2 116.1 116.1 0 0 1 0 232.2z"/>
</svg>
